<?xml version="1.0" encoding="UTF-8"?>
<svg id="Layer_2" xmlns="http://www.w3.org/2000/svg" viewBox="0 0 58.41 48.19">
  <defs>
    <style>
      .cls-1 {
        fill: #3c3c3b;
      }
    </style>
  </defs>
  <g id="Ebene_1">
    <g>
      <polygon class="cls-1" points="3.99 17.52 17.26 17.52 17.26 14.43 13.87 14.43 13.87 8.4 19.24 4.64 7.89 4.64 .31 17.52 3.99 17.52 3.99 17.52"/>
      <polygon class="cls-1" points="44.54 14.43 41.15 14.43 41.15 17.52 54.42 17.52 54.42 17.52 58.09 17.52 50.51 4.64 39.17 4.64 44.54 8.4 44.54 14.43"/>
      <path class="cls-1" d="M54.42,45.87v-26.42h-13.27v26.42h-1.93V12.5h3.39v-3.09L29.2,0l-13.4,9.41v3.09h3.39v33.37h-1.93v-26.42H3.99v26.42H0v2.32h58.41v-2.32h-3.99ZM13.22,41.25h-5.2v-5.2h5.2v5.2ZM13.22,30.02h-5.2v-5.2h5.2v5.2ZM26.6,13.59h5.2v5.2h-5.2v-5.2ZM26.6,24.82h5.2v5.2h-5.2v-5.2ZM32.98,45.87h-7.56v-6.52c0-2.09,1.69-3.78,3.78-3.78s3.78,1.69,3.78,3.78v6.52ZM50.38,41.25h-5.2v-5.2h5.2v5.2ZM50.38,30.02h-5.2v-5.2h5.2v5.2Z"/>
    </g>
  </g>
</svg>