<?xml version="1.0" encoding="UTF-8"?>
<svg id="Layer_2" xmlns="http://www.w3.org/2000/svg" viewBox="0 0 50.77 48.19">
  <defs>
    <style>
      .cls-1 {
        fill: #3c3c3b;
      }
    </style>
  </defs>
  <g id="Ebene_1">
    <g>
      <rect class="cls-1" x="13.07" y="33.4" width="7.34" height="1.55" transform="translate(-19.26 21.84) rotate(-44.99)"/>
      <rect class="cls-1" x="17.63" y="35.74" width="2.9" height="1.54" transform="translate(-20.22 24.17) rotate(-44.97)"/>
      <rect class="cls-1" x="12.25" y="31.23" width="3.97" height="1.55" transform="translate(-18.47 19.45) rotate(-45.01)"/>
      <path class="cls-1" d="M33.55,36.47c-.67,0-1.21.54-1.21,1.2s.54,1.21,1.21,1.21,1.21-.54,1.21-1.21-.54-1.2-1.21-1.2Z"/>
      <path class="cls-1" d="M5.1,20.65c2.37,0,4.3-1.93,4.3-4.3v-5.38H.8v5.38c0,2.37,1.93,4.3,4.3,4.3Z"/>
      <path class="cls-1" d="M10.95,16.35c0,2.37,1.93,4.3,4.3,4.3s4.3-1.93,4.3-4.3v-5.38h-8.59v5.38Z"/>
      <path class="cls-1" d="M21.09,16.35c0,2.37,1.93,4.3,4.3,4.3s4.3-1.93,4.3-4.3v-5.38h-8.6v5.38Z"/>
      <path class="cls-1" d="M31.23,16.35c0,2.37,1.93,4.3,4.3,4.3s4.3-1.93,4.3-4.3v-5.38h-8.6v5.38Z"/>
      <path class="cls-1" d="M41.37,16.35c0,2.37,1.93,4.3,4.3,4.3s4.3-1.93,4.3-4.3v-5.38h-8.6v5.38Z"/>
      <path class="cls-1" d="M47.54,45.87v-23.58c-.59.19-1.22.29-1.87.29-2.09,0-3.94-1.04-5.07-2.62-1.13,1.59-2.98,2.62-5.07,2.62s-3.94-1.04-5.07-2.62c-1.13,1.59-2.98,2.62-5.07,2.62s-3.94-1.04-5.07-2.62c-1.13,1.59-2.98,2.62-5.07,2.62s-3.94-1.04-5.07-2.62c-1.13,1.59-2.98,2.62-5.07,2.62-.65,0-1.28-.1-1.87-.29v23.58H0v2.32h50.77v-2.32h-3.23ZM8.55,27.94h16.16v12.24H8.55v-12.24ZM29.29,27.94h12.93v17.93h-12.93v-17.93Z"/>
      <path class="cls-1" d="M43.86,9.04V0H6.91v9.04h36.95Z"/>
    </g>
  </g>
</svg>