<?xml version="1.0" encoding="UTF-8"?>
<svg  class="fill-primary-500" id="Layer_2" xmlns="http://www.w3.org/2000/svg" viewBox="0 0 56.64 48.19">
  <defs>
    <style>
      .cls-1 {
        fill: #3c3c3b;
      }
    </style>
  </defs>
  <g id="Ebene_1">
    <g>
      <polygon class="cls-1" points="28.32 0 0 22.07 3.68 26.79 28.32 7.59 52.96 26.79 56.64 22.07 28.32 0"/>
      <path class="cls-1" d="M48.36,25.65l-20.04-15.62-20.04,15.62v20.22h-3.24v2.32h46.57v-2.32h-3.24v-20.22ZM14.61,28.86h9.86v9.86h-9.86v-9.86ZM30.88,28.86h11.5v17.01h-11.5v-17.01Z"/>
      <polygon class="cls-1" points="48.36 1.55 40.95 1.55 40.95 7.39 48.36 13.17 48.36 1.55"/>
      <path class="cls-1" d="M34.28,36.72c-.78,0-1.42.63-1.42,1.42s.63,1.42,1.42,1.42,1.42-.63,1.42-1.42-.64-1.42-1.42-1.42Z"/>
    </g>
  </g>
</svg>